<mxfile host="app.diagrams.net" agent="Mozilla/5.0 (Windows NT 10.0; Win64; x64) AppleWebKit/537.36 (KHTML, like Gecko) Chrome/130.0.0.0 Safari/537.36 Edg/130.0.0.0" version="24.8.2">
  <diagram name="PÃ¡gina-1" id="A1XricTwvR2LtzFUGfRS">
    <mxGraphModel dx="2053" dy="634" grid="1" gridSize="10" guides="1" tooltips="1" connect="1" arrows="1" fold="1" page="1" pageScale="1" pageWidth="827" pageHeight="1169" math="0" shadow="0">
      <root>
        <mxCell id="0" />
        <mxCell id="1" parent="0" />
        <mxCell id="thF2VDcHaVG7FaZjGytK-1" value="Estudante" style="shape=umlActor;verticalLabelPosition=bottom;verticalAlign=top;html=1;outlineConnect=0;" parent="1" vertex="1">
          <mxGeometry x="-100" y="30" width="50" height="100" as="geometry" />
        </mxCell>
        <mxCell id="thF2VDcHaVG7FaZjGytK-5" value="Tela principal" style="shape=umlBoundary;whiteSpace=wrap;html=1;" parent="1" vertex="1">
          <mxGeometry x="30" y="40" width="100" height="80" as="geometry" />
        </mxCell>
        <mxCell id="thF2VDcHaVG7FaZjGytK-9" style="edgeStyle=orthogonalEdgeStyle;rounded=0;orthogonalLoop=1;jettySize=auto;html=1;entryX=0.05;entryY=0.496;entryDx=0;entryDy=0;entryPerimeter=0;" parent="1" source="thF2VDcHaVG7FaZjGytK-5" edge="1">
          <mxGeometry relative="1" as="geometry">
            <mxPoint x="203.9375" y="79.63999999999999" as="targetPoint" />
          </mxGeometry>
        </mxCell>
        <mxCell id="thF2VDcHaVG7FaZjGytK-35" style="edgeStyle=orthogonalEdgeStyle;rounded=0;orthogonalLoop=1;jettySize=auto;html=1;entryX=0.018;entryY=0.495;entryDx=0;entryDy=0;entryPerimeter=0;" parent="1" source="thF2VDcHaVG7FaZjGytK-1" target="thF2VDcHaVG7FaZjGytK-5" edge="1">
          <mxGeometry relative="1" as="geometry" />
        </mxCell>
        <mxCell id="thF2VDcHaVG7FaZjGytK-37" value="Acessar tela de aula" style="ellipse;shape=umlControl;whiteSpace=wrap;html=1;" parent="1" vertex="1">
          <mxGeometry x="200" y="30" width="78.75" height="90" as="geometry" />
        </mxCell>
        <mxCell id="yQ8m5PVfVtzuY-FzAJRZ-1" style="edgeStyle=orthogonalEdgeStyle;rounded=0;orthogonalLoop=1;jettySize=auto;html=1;" edge="1" parent="1" source="thF2VDcHaVG7FaZjGytK-38" target="thF2VDcHaVG7FaZjGytK-1">
          <mxGeometry relative="1" as="geometry" />
        </mxCell>
        <mxCell id="yQ8m5PVfVtzuY-FzAJRZ-3" style="edgeStyle=orthogonalEdgeStyle;rounded=0;orthogonalLoop=1;jettySize=auto;html=1;" edge="1" parent="1" source="thF2VDcHaVG7FaZjGytK-38" target="yQ8m5PVfVtzuY-FzAJRZ-2">
          <mxGeometry relative="1" as="geometry" />
        </mxCell>
        <mxCell id="thF2VDcHaVG7FaZjGytK-38" value="Tela de aula" style="shape=umlBoundary;whiteSpace=wrap;html=1;" parent="1" vertex="1">
          <mxGeometry x="80" y="140" width="100" height="80" as="geometry" />
        </mxCell>
        <mxCell id="thF2VDcHaVG7FaZjGytK-39" value="" style="endArrow=classic;html=1;rounded=0;entryX=0.997;entryY=0.356;entryDx=0;entryDy=0;entryPerimeter=0;" parent="1" source="thF2VDcHaVG7FaZjGytK-37" target="thF2VDcHaVG7FaZjGytK-38" edge="1">
          <mxGeometry width="50" height="50" relative="1" as="geometry">
            <mxPoint x="280" y="250" as="sourcePoint" />
            <mxPoint x="330" y="200" as="targetPoint" />
          </mxGeometry>
        </mxCell>
        <mxCell id="yQ8m5PVfVtzuY-FzAJRZ-5" style="edgeStyle=orthogonalEdgeStyle;rounded=0;orthogonalLoop=1;jettySize=auto;html=1;" edge="1" parent="1" source="yQ8m5PVfVtzuY-FzAJRZ-2" target="yQ8m5PVfVtzuY-FzAJRZ-4">
          <mxGeometry relative="1" as="geometry">
            <Array as="points">
              <mxPoint x="440" y="180" />
              <mxPoint x="440" y="180" />
            </Array>
          </mxGeometry>
        </mxCell>
        <mxCell id="yQ8m5PVfVtzuY-FzAJRZ-2" value="selecionar aula&amp;nbsp;" style="ellipse;shape=umlControl;whiteSpace=wrap;html=1;" vertex="1" parent="1">
          <mxGeometry x="278.75" y="130" width="87.5" height="100" as="geometry" />
        </mxCell>
        <mxCell id="yQ8m5PVfVtzuY-FzAJRZ-4" value="Aula gravadas" style="ellipse;shape=umlEntity;whiteSpace=wrap;html=1;" vertex="1" parent="1">
          <mxGeometry x="450" y="140" width="90" height="90" as="geometry" />
        </mxCell>
        <mxCell id="yQ8m5PVfVtzuY-FzAJRZ-6" value="Abrir player de video na tela de aula&amp;nbsp;" style="ellipse;shape=umlControl;whiteSpace=wrap;html=1;" vertex="1" parent="1">
          <mxGeometry x="278.75" y="270" width="87.5" height="100" as="geometry" />
        </mxCell>
        <mxCell id="yQ8m5PVfVtzuY-FzAJRZ-9" style="edgeStyle=orthogonalEdgeStyle;rounded=0;orthogonalLoop=1;jettySize=auto;html=1;entryX=0.498;entryY=0.16;entryDx=0;entryDy=0;entryPerimeter=0;" edge="1" parent="1" source="yQ8m5PVfVtzuY-FzAJRZ-2" target="yQ8m5PVfVtzuY-FzAJRZ-6">
          <mxGeometry relative="1" as="geometry" />
        </mxCell>
        <mxCell id="yQ8m5PVfVtzuY-FzAJRZ-10" style="edgeStyle=orthogonalEdgeStyle;rounded=0;orthogonalLoop=1;jettySize=auto;html=1;entryX=0.579;entryY=1.022;entryDx=0;entryDy=0;entryPerimeter=0;" edge="1" parent="1" source="yQ8m5PVfVtzuY-FzAJRZ-6" target="thF2VDcHaVG7FaZjGytK-38">
          <mxGeometry relative="1" as="geometry" />
        </mxCell>
      </root>
    </mxGraphModel>
  </diagram>
</mxfile>
